<svg xmlns="http://www.w3.org/2000/svg" xmlns:android="http://schemas.android.com/apk/res/android" width="393dp" height="91dp" viewportWidth="393" viewportHeight="91">
	<path d="M0,0h392.98v91h-392.98z" fill="#237F8A"/>
	<path d="M0,59.36L16.44,49.56C32.87,39.77 65.74,19.59 98.6,18.44C130.78,16.71 163.64,32.85 196.5,47.83C229.36,62.82 262.22,76.07 295.08,82.41C327.25,89.33 360.12,89.33 376.55,89.33H392.98L392.99,-0H376.56C360.13,-0 327.27,-0 295.09,-0C262.23,-0 229.37,-0 196.5,-0C163.64,-0 130.78,-0 98.6,-0C65.74,-0 32.88,-0 16.45,-0H0.01L0,59.36Z" fill="#384344" fillAlpha="0.22" fill-rule="evenOdd"/>
</svg>
