<svg xmlns="http://www.w3.org/2000/svg" xmlns:android="http://schemas.android.com/apk/res/android" width="391dp" height="105dp" viewportWidth="391" viewportHeight="105">
	<path d="M0.04,69.27L16.35,57.86C32.65,46.45 65.27,22.97 97.88,21.63C129.81,19.61 162.42,38.4 195.03,55.85C227.65,73.29 260.26,88.72 292.87,96.1C324.8,104.16 357.42,104.16 373.72,104.16H390.03V0.16H373.72C357.42,0.16 324.8,0.16 292.87,0.16C260.26,0.16 227.65,0.16 195.03,0.16C162.42,0.16 129.81,0.16 97.88,0.16C65.27,0.16 32.65,0.16 16.35,0.16H0.04L0.04,69.27Z" fill="#237F8A" fill-rule="evenOdd"/>
</svg>
