<svg width="473" height="91" viewBox="0 0 473 91" fill="none" xmlns="http://www.w3.org/2000/svg">
<rect x="0.00317383" width="472.988" height="91" fill="#237F8A"/>
<path fill-rule="evenodd" clip-rule="evenodd" d="M0.00509497 59.3597L19.7831 49.5624C39.5611 39.7652 79.1172 19.5944 118.67 18.4418C157.399 16.7129 196.949 32.8495 236.499 47.8335C276.049 62.8175 315.6 76.0726 355.151 82.4119C393.879 89.3276 433.432 89.3276 453.208 89.3276H472.984L472.999 -1.76611e-06H453.223C433.447 -1.76611e-06 393.894 -1.76611e-06 355.165 -1.76611e-06C315.613 -1.76611e-06 276.06 -1.76611e-06 236.507 -1.76611e-06C196.955 -1.76611e-06 157.402 -1.76611e-06 118.673 -1.76611e-06C79.1206 -1.76611e-06 39.5679 -1.76611e-06 19.7915 -1.76611e-06H0.0151869L0.00509497 59.3597Z" fill="#384344" fill-opacity="0.22"/>
</svg>
