<svg width="53" height="53" viewBox="0 0 53 53" fill="none" xmlns="http://www.w3.org/2000/svg">
<circle cx="26.5" cy="26.5" r="25.5" fill="white" stroke="#237F8A" stroke-width="2"/>
<path d="M22.4938 10.5065C22.0525 10.9689 21.6012 11.4349 21.1868 11.915C20.8655 12.2877 20.4819 12.6433 20.1105 12.9714C19.0304 14.3177 17.1545 14.8066 17.266 16.6101C17.3775 18.4136 17.2099 20.5587 17.266 22.4203C17.3221 24.282 17.2276 26.3613 17.266 28.2306C17.3044 30.0998 17.2191 32.2085 17.266 34.0408C17.3129 35.873 16.7071 37.6484 18.7267 38.7946C19.0411 38.973 19.3025 39.1925 19.4955 39.4402C19.886 39.9425 20.4411 40.253 20.8793 40.7313C21.1422 40.9755 21.469 41.1879 21.725 41.4356C22.39 42.0782 23.0442 42.7655 23.7238 43.3723C23.9299 43.556 24.1605 43.7485 24.3389 43.9592C24.9239 44.6512 25.7019 45.275 26.3377 45.9547C26.7659 46.4118 27.2772 46.7781 27.7408 47.2311C28.2036 47.6842 29.1876 48.132 29.336 47.3632C29.4844 46.5944 28.957 46.1231 28.7979 45.4851C28.6387 44.8472 28.2628 44.38 28.0229 43.7879C27.7838 43.1951 27.3664 42.708 27.1011 42.144C26.8351 41.5806 26.4992 41.0946 26.1786 40.5594C25.8572 40.0247 25.5505 39.5112 25.2553 38.9754C24.9608 38.4389 24.5611 37.9448 24.3389 37.3861C23.6547 36.244 24.1551 34.8689 24.0314 33.5713C23.9076 32.2736 24.1244 30.7782 24.0314 29.463C24.1298 29.4472 24.2405 29.5082 24.262 29.5804C24.9508 30.0382 25.1884 30.9091 25.8173 31.445C26.4461 31.9808 26.7667 32.7537 27.3433 33.3318C27.9199 33.9093 28.3404 34.5872 28.9324 35.1705C29.5244 35.7545 29.8626 36.4676 30.47 37.0486C31.0766 37.6302 31.2957 38.3544 32.1267 38.8357C32.9586 39.3169 34.3378 39.483 35.3264 39.2007C36.3159 38.919 36.8925 38.4278 37.3829 37.7188C37.8742 37.0099 37.5921 35.9599 37.0047 35.3466C36.4181 34.7327 36.0622 34.0631 35.4802 33.4586C34.8982 32.8547 34.4977 32.2003 33.9311 31.5893C33.3645 30.9784 32.9117 30.3422 32.392 29.7125C31.873 29.0821 31.3418 28.4905 30.8159 27.8637C30.2901 27.2375 29.4583 26.636 30.1994 26.0139C30.9405 25.3918 31.1826 24.8031 31.7731 24.1634C32.3627 23.5231 32.7725 22.9227 33.3145 22.2883C33.8557 21.6533 34.3139 21.0429 34.8775 20.4296C35.441 19.8163 35.87 19.1807 36.415 18.5515C36.9593 17.9218 37.6174 17.2246 37.639 16.434C37.6605 15.6435 37.1592 14.8905 36.3382 14.3752C35.5179 13.8599 34.1786 13.7396 33.1561 13.9509C32.1336 14.1628 31.5517 14.7508 31.0504 15.3953C30.5492 16.0402 30.0141 16.64 29.509 17.2704C29.0039 17.9007 28.4319 18.4934 27.946 19.1291C27.4602 19.7647 26.8943 20.3762 26.4085 21.0071C25.9218 21.6374 25.3083 22.2044 24.8002 22.8312C24.5711 23.1135 24.3235 23.3999 24.1851 23.7115C23.8707 23.1487 24.0767 22.3135 24.0314 21.5987C23.986 20.8839 24.0621 20.0299 24.0314 19.3098C24.0006 18.5897 24.069 17.7176 24.0314 17.0209C23.9937 16.3243 24.1428 15.6177 23.5755 15.0801C23.0089 14.5425 23.2856 14.0742 23.8007 13.5583C23.9376 13.3875 24.0152 13.2331 24.1851 13.0888C24.2243 13.0553 24.3089 13.0001 24.3389 12.9714C25.0738 11.9666 25.9141 11.1702 26.7759 10.1954C27.637 9.21999 28.3996 8.48989 29.2399 7.43995C30.0794 6.38941 29.6697 4.44974 29.6435 3.229C27.3318 5.70158 24.8432 8.04562 22.4938 10.5065Z" fill="#237F8A"/>
</svg>
