<svg width="23" height="23" viewBox="0 0 23 23" fill="none" xmlns="http://www.w3.org/2000/svg">
<g clip-path="url(#clip0_1_2889)">
<path d="M11.5992 9.0028e-06C11.9758 9.0028e-06 12.3467 0.0244465 12.6917 0.0819465C13.0316 0.125731 13.3669 0.199818 13.6936 0.303321C14.0195 0.401071 14.3424 0.527092 14.6625 0.681384C14.9744 0.829447 15.295 1.01057 15.6156 1.20751C16.1575 1.55251 16.6908 1.83138 17.2342 2.0542C18.3036 2.48321 19.4349 2.738 20.585 2.80888C21.1667 2.85201 21.769 2.87405 22.3919 2.87501V8.62501C22.3919 9.71655 22.2525 10.7544 21.9736 11.7386C21.7057 12.7107 21.325 13.6481 20.8394 14.5317C20.3559 15.4141 19.7837 16.245 19.1317 17.0114C18.4701 17.7956 17.7533 18.5315 16.9869 19.2136C16.2097 19.8969 15.3922 20.533 14.5389 21.1183C13.684 21.7125 12.8244 22.2602 11.96 22.7614L11.615 22.9669L11.27 22.7614C10.3833 22.2482 9.51722 21.7001 8.67387 21.1183C7.81592 20.5392 6.99804 19.9029 6.2258 19.2136C5.4599 18.5315 4.74364 17.7955 4.08249 17.0114C3.43267 16.2414 2.85793 15.4111 2.36612 14.5317C1.88924 13.6439 1.509 12.7075 1.23193 11.7386C0.953144 10.7244 0.814812 9.6768 0.820804 8.62501V2.87501C1.44372 2.87405 2.04651 2.85201 2.62918 2.80888C3.20378 2.76982 3.77464 2.68766 4.33693 2.56307C4.88749 2.43945 5.43805 2.27557 5.97999 2.0542C6.54221 1.82694 7.08134 1.5463 7.58999 1.21613C8.22249 0.805009 8.86362 0.501696 9.49612 0.301884C10.1773 0.0932876 10.8868 -0.00854432 11.5992 9.0028e-06ZM20.9458 4.28807C19.8577 4.23482 18.7797 4.0529 17.7344 3.74613C16.695 3.43527 15.7048 2.97889 14.7933 2.39057C14.3204 2.08094 13.8072 1.83766 13.2681 1.66751C12.7293 1.50501 12.1691 1.42457 11.6064 1.42888C11.0394 1.42543 10.4751 1.50584 9.93168 1.66751C9.39198 1.83258 8.87953 2.07622 8.4108 2.39057C7.49737 2.98152 6.50471 3.43986 5.46249 3.75188C4.44378 4.04801 3.37572 4.22913 2.2583 4.29526V8.6322C2.2583 9.58382 2.38193 10.4981 2.62918 11.3749C2.88129 12.2456 3.22837 13.0858 3.66418 13.8805C4.10539 14.6834 4.62545 15.4404 5.21668 16.1403C5.81612 16.8461 6.4558 17.503 7.1458 18.1269C7.8358 18.7508 8.55887 19.3286 9.31499 19.8605C10.0788 20.3933 10.8426 20.8807 11.6064 21.3224C12.3883 20.868 13.1504 20.3803 13.8906 19.8605C14.6526 19.3301 15.3796 18.751 16.0669 18.1269C16.7569 17.503 17.3981 16.8461 17.9975 16.1403C18.5887 15.4404 19.1088 14.6834 19.55 13.8805C19.9836 13.0867 20.3255 12.2461 20.5692 11.3749C20.8242 10.4832 20.951 9.55968 20.9458 8.6322V4.28807Z" fill="#0E6B3E"/>
<path fill-rule="evenodd" clip-rule="evenodd" d="M16.9582 6.76945L16.3257 6.22607L15.7421 6.27639L9.47459 13.6766L7.3399 10.6291L6.7649 10.5314L6.09934 11.0072L6.00015 11.5822L8.74434 15.5008L9.05628 15.6733L9.71322 15.7136L10.0496 15.5669L16.9999 7.35164L16.9582 6.76945Z" fill="#0E6B3E"/>
</g>
<defs>
<clipPath id="clip0_1_2889">
<rect width="23" height="23" fill="white"/>
</clipPath>
</defs>
</svg>
