<svg width="394" height="91" viewBox="0 0 394 91" fill="none" xmlns="http://www.w3.org/2000/svg">
<rect x="1" width="392" height="91" fill="#33858F"/>
<path fill-rule="evenodd" clip-rule="evenodd" d="M1.01758 59.5914L17.4018 49.7989C33.786 40.0063 66.5539 19.846 99.3355 18.6665C131.434 16.9125 164.228 32.9883 197.021 47.9138C229.814 62.8392 262.606 76.0392 295.393 82.337C327.497 89.2106 360.28 89.1815 376.671 89.1669L393.062 89.1523L392.998 -1.33468e-05L376.607 0.0145485C360.216 0.0291104 327.433 0.058234 295.334 0.086751C262.551 0.115875 229.769 0.144998 196.987 0.174122C164.204 0.203246 131.422 0.232369 99.3223 0.260886C66.5399 0.29001 33.7574 0.319134 17.3662 0.333695L0.975017 0.348257L1.01758 59.5914Z" fill="#384344" fill-opacity="0.22"/>
</svg>
