<svg width="163" height="162" viewBox="0 0 163 162" fill="none" xmlns="http://www.w3.org/2000/svg">
<g filter="url(#filter0_d_119_2576)">
<rect x="8" y="5" width="147" height="147" rx="21.9813" fill="#237F8A"/>
</g>
<path d="M24.8775 121.649C24.8913 121.594 24.8982 121.552 24.8982 121.525C24.912 121.497 24.8913 121.463 24.8362 121.421C24.8086 121.325 24.8293 121.263 24.8982 121.235C24.9671 121.208 25.036 121.18 25.1049 121.153C25.1738 120.326 25.3117 119.575 25.5184 118.899C25.7389 118.21 25.9732 117.542 26.2212 116.894C26.4831 116.246 26.738 115.599 26.9861 114.951C27.2479 114.289 27.4615 113.573 27.6269 112.801C27.8061 112.622 27.9508 112.408 28.061 112.16C28.185 111.912 28.3022 111.664 28.4124 111.416C28.5365 111.154 28.6743 110.906 28.8259 110.672C28.9913 110.438 29.2118 110.245 29.4874 110.093C29.6114 110.107 29.7217 110.134 29.8181 110.176C29.9284 110.203 30.0317 110.238 30.1282 110.279C30.2247 110.32 30.328 110.355 30.4383 110.383C30.5485 110.41 30.6657 110.424 30.7897 110.424C30.8448 110.493 30.8931 110.575 30.9344 110.672C30.9758 110.755 31.0309 110.83 31.0998 110.899L31.4719 110.837C31.651 110.989 31.8095 111.182 31.9473 111.416C32.0851 111.637 32.1816 111.871 32.2367 112.119C32.2919 112.353 32.285 112.588 32.2161 112.822C32.1472 113.042 31.9887 113.215 31.7406 113.339C31.7544 113.421 31.7544 113.483 31.7406 113.525C31.7268 113.566 31.7062 113.607 31.6786 113.649C31.6648 113.676 31.6579 113.711 31.6579 113.752C31.6579 113.78 31.6855 113.821 31.7406 113.876C31.589 114 31.4512 114.159 31.3272 114.352C31.2031 114.531 31.0998 114.724 31.0171 114.93C30.9344 115.137 30.8655 115.344 30.8104 115.55C30.769 115.757 30.7415 115.95 30.7277 116.129C31.1273 115.716 31.5959 115.33 32.1334 114.972C32.6708 114.613 33.1394 114.276 33.5391 113.959C33.856 113.738 34.1317 113.532 34.3659 113.339C34.614 113.132 34.8621 112.946 35.1101 112.78C35.3582 112.601 35.6131 112.436 35.875 112.284C36.1506 112.119 36.4262 111.94 36.7019 111.747C36.8397 111.692 36.943 111.678 37.0119 111.706C37.0946 111.733 37.1704 111.768 37.2393 111.809C37.2531 111.712 37.2324 111.657 37.1773 111.643C37.1222 111.616 37.1015 111.547 37.1153 111.437C37.3496 111.368 37.5563 111.285 37.7355 111.189C37.9284 111.092 38.1282 111.003 38.3349 110.92C38.4728 111.072 38.6106 111.237 38.7484 111.416C38.8862 111.581 39.0722 111.671 39.3065 111.685C39.3892 111.864 39.4857 112.002 39.5959 112.098C39.72 112.181 39.8371 112.264 39.9473 112.346C40.0714 112.429 40.1747 112.532 40.2574 112.656C40.3401 112.767 40.3883 112.946 40.4021 113.194C40.347 113.304 40.2781 113.428 40.1954 113.566C40.1265 113.69 40.0645 113.848 40.0094 114.041C39.6786 114.345 39.341 114.613 38.9964 114.848C38.6657 115.068 38.3212 115.282 37.9628 115.488C37.6183 115.695 37.26 115.909 36.8879 116.129C36.5296 116.35 36.1644 116.605 35.7923 116.894C35.7096 117.018 35.6063 117.128 35.4822 117.225C35.3582 117.321 35.2273 117.418 35.0895 117.514C34.9654 117.597 34.8414 117.687 34.7174 117.783C34.6071 117.88 34.5175 117.997 34.4486 118.134C34.3935 118.134 34.3453 118.141 34.3039 118.155C34.2626 118.155 34.2143 118.162 34.1592 118.176C34.1041 118.286 34.0214 118.376 33.9112 118.445C33.8147 118.513 33.7458 118.603 33.7044 118.713C33.9525 119.251 34.2764 119.657 34.676 119.933C35.0757 120.209 35.5236 120.408 36.0197 120.532C36.5158 120.656 37.0533 120.725 37.6321 120.739C38.2109 120.753 38.8104 120.76 39.4305 120.76C39.4995 120.746 39.527 120.712 39.5132 120.656C39.5132 120.588 39.5546 120.56 39.6373 120.574C39.844 120.643 40.0163 120.725 40.1541 120.822C40.2919 120.918 40.4228 121.022 40.5468 121.132C40.6709 121.242 40.788 121.359 40.8983 121.483C41.0223 121.594 41.1601 121.711 41.3117 121.835C41.2841 122.482 41.0912 123.013 40.7329 123.426C40.3883 123.826 39.9267 124.15 39.3479 124.398C38.5485 124.426 37.8526 124.405 37.26 124.336C36.6674 124.267 36.0817 124.116 35.5029 123.881C35.4615 123.867 35.4202 123.826 35.3789 123.757C35.3513 123.688 35.3237 123.64 35.2962 123.613C35.1859 123.544 35.0619 123.516 34.9241 123.53C34.7863 123.544 34.6691 123.53 34.5727 123.488C34.4486 123.433 34.2419 123.309 33.9525 123.116C33.6769 122.923 33.4219 122.744 33.1876 122.579C32.8982 122.345 32.6157 122.117 32.3401 121.897C32.0783 121.662 31.844 121.408 31.6373 121.132C31.5959 121.063 31.5339 121.029 31.4512 121.029C31.3823 121.029 31.3134 121.008 31.2445 120.967C30.7621 121.27 30.3556 121.649 30.0248 122.103C29.7079 122.544 29.3978 122.999 29.0946 123.468C28.7914 123.923 28.4676 124.357 28.123 124.77C27.7923 125.17 27.372 125.48 26.862 125.7C26.7105 125.7 26.5795 125.673 26.4693 125.618C26.359 125.576 26.2557 125.514 26.1592 125.432C26.0627 125.363 25.9663 125.294 25.8698 125.225C25.7733 125.156 25.6631 125.108 25.539 125.08C25.539 124.887 25.4977 124.708 25.415 124.543C25.3461 124.364 25.2703 124.205 25.1876 124.067C25.1187 123.916 25.0636 123.771 25.0223 123.633C24.9947 123.495 25.036 123.358 25.1463 123.22C24.9947 123.096 24.85 122.992 24.7122 122.91C24.8086 122.813 24.85 122.724 24.8362 122.641C24.8362 122.558 24.8155 122.476 24.7742 122.393C24.7328 122.31 24.6984 122.227 24.6708 122.145C24.657 122.048 24.6846 121.945 24.7535 121.835C24.8086 121.821 24.8293 121.793 24.8155 121.752C24.8155 121.711 24.8362 121.676 24.8775 121.649ZM53.3874 123.426C53.4149 123.785 53.3736 124.081 53.2633 124.315C53.1531 124.55 53.0015 124.749 52.8086 124.915C52.6156 125.08 52.3951 125.211 52.1471 125.308C51.899 125.404 51.6578 125.494 51.4235 125.576C51.3133 125.507 51.203 125.439 51.0928 125.37C50.9963 125.287 50.8792 125.225 50.7414 125.184C50.5622 124.853 50.39 124.563 50.2246 124.315C50.0592 124.054 49.9834 123.757 49.9972 123.426C49.9972 123.413 50.0041 123.337 50.0179 123.199C50.0454 123.061 50.073 122.91 50.1005 122.744C50.1419 122.579 50.1695 122.427 50.1832 122.29C50.2108 122.138 50.2246 122.055 50.2246 122.041C49.9076 122.069 49.5769 122.138 49.2323 122.248C48.8878 122.358 48.5502 122.489 48.2194 122.641C47.9024 122.793 47.5992 122.944 47.3098 123.096C47.0342 123.247 46.8068 123.378 46.6277 123.488C46.6277 123.53 46.6001 123.633 46.545 123.799C46.4899 123.95 46.421 124.116 46.3383 124.295C46.2556 124.46 46.166 124.612 46.0695 124.749C45.9731 124.887 45.8766 124.956 45.7801 124.956C45.7939 124.998 45.8146 125.039 45.8421 125.08C45.8697 125.122 45.8697 125.177 45.8421 125.246C45.6492 125.301 45.4769 125.37 45.3253 125.452C45.1737 125.549 45.0153 125.625 44.8499 125.68C44.6845 125.749 44.5054 125.783 44.3124 125.783C44.1195 125.783 43.8921 125.714 43.6302 125.576C43.6302 125.494 43.5958 125.425 43.5269 125.37C43.458 125.301 43.3822 125.246 43.2995 125.204C43.2306 125.149 43.1686 125.108 43.1135 125.08C43.0583 125.039 43.0308 125.004 43.0308 124.977C42.9619 124.991 42.9343 124.942 42.9481 124.832C42.9619 124.722 43.017 124.694 43.1135 124.749C42.9619 124.557 42.8654 124.391 42.824 124.253C42.7965 124.102 42.7207 123.916 42.5967 123.695C42.6242 123.668 42.6518 123.619 42.6793 123.55C42.6931 123.482 42.7069 123.42 42.7207 123.364C42.7345 123.309 42.7551 123.268 42.7827 123.24C42.8103 123.213 42.8447 123.22 42.8861 123.261C42.8585 123.137 42.8585 123.034 42.8861 122.951C42.9136 122.868 42.9412 122.793 42.9687 122.724C42.9963 122.655 43.017 122.586 43.0308 122.517C43.0445 122.448 43.0239 122.372 42.9687 122.29C43.1892 121.986 43.334 121.662 43.4029 121.318C43.4718 120.96 43.5131 120.636 43.5269 120.346C43.6234 120.25 43.706 120.112 43.775 119.933C43.8576 119.754 43.9197 119.575 43.961 119.395C44.0023 119.203 44.0161 119.023 44.0023 118.858C44.0023 118.679 43.9817 118.534 43.9403 118.424C43.9541 118.355 44.0299 118.334 44.1677 118.362C44.2504 117.907 44.3055 117.397 44.3331 116.832C44.3744 116.253 44.4365 115.709 44.5191 115.199C44.6018 114.675 44.7396 114.221 44.9326 113.835C45.1255 113.435 45.4356 113.173 45.8628 113.049C45.9455 113.339 46.0489 113.594 46.1729 113.814C46.3107 114.035 46.4554 114.248 46.607 114.455C46.7724 114.648 46.9309 114.848 47.0825 115.054C47.2478 115.261 47.3994 115.495 47.5372 115.757C47.5235 116.019 47.4959 116.322 47.4545 116.667C47.4132 117.011 47.3581 117.363 47.2892 117.721C47.234 118.079 47.172 118.424 47.1031 118.755C47.048 119.085 46.9929 119.368 46.9377 119.602C46.9515 119.671 46.986 119.712 47.0411 119.726C47.11 119.74 47.1238 119.802 47.0825 119.912C47.4132 119.83 47.7577 119.754 48.116 119.685C48.4744 119.616 48.8327 119.54 49.191 119.457C49.5493 119.375 49.8938 119.285 50.2246 119.189C50.5691 119.078 50.8861 118.948 51.1755 118.796C51.2444 118.258 51.334 117.721 51.4442 117.184C51.5545 116.646 51.5682 116.095 51.4856 115.53C51.5545 115.475 51.6096 115.406 51.6509 115.323C51.6923 115.24 51.7612 115.185 51.8577 115.158C51.7887 114.896 51.7612 114.62 51.775 114.331C51.7887 114.041 51.837 113.766 51.9197 113.504C52.0161 113.242 52.1471 113.022 52.3124 112.842C52.4916 112.65 52.7052 112.525 52.9533 112.47C53.1049 112.691 53.2358 112.932 53.346 113.194C53.4563 113.442 53.5665 113.697 53.6768 113.959C53.8008 114.207 53.9248 114.448 54.0489 114.682C54.1867 114.903 54.359 115.096 54.5657 115.261C54.607 115.661 54.6346 116.074 54.6484 116.501C54.6759 116.929 54.6966 117.363 54.7104 117.804C54.6001 118.327 54.4761 118.837 54.3383 119.333C54.2142 119.816 54.1247 120.333 54.0695 120.884C53.9731 120.994 53.8973 121.118 53.8422 121.256C53.787 121.394 53.7319 121.538 53.6768 121.69C53.6217 121.828 53.5596 121.966 53.4907 122.103C53.4218 122.227 53.3391 122.338 53.2427 122.434C53.2978 122.6 53.3047 122.758 53.2633 122.91C53.2358 123.047 53.2771 123.22 53.3874 123.426ZM67.9644 123.695C67.8817 123.929 67.7576 124.171 67.5923 124.419C67.4407 124.653 67.2546 124.867 67.0341 125.06C66.8274 125.239 66.5931 125.39 66.3313 125.514C66.0694 125.638 65.7938 125.707 65.5044 125.721C65.3252 125.68 65.2012 125.631 65.1323 125.576C65.0772 125.535 65.0152 125.494 64.9463 125.452C64.9049 125.425 64.8636 125.404 64.8222 125.39C64.7947 125.363 64.7671 125.342 64.7395 125.328L64.4915 125.225L64.5742 124.956C64.6017 124.846 64.5948 124.763 64.5535 124.708C64.5121 124.639 64.4295 124.55 64.3054 124.439C64.2641 124.398 64.2227 124.357 64.1814 124.315C64.1401 124.274 64.1056 124.233 64.078 124.191L63.7266 123.799L64.2848 123.654C64.6293 123.557 64.8567 123.433 64.9669 123.282C65.091 123.13 65.1392 122.875 65.1116 122.517C64.836 122.462 64.6017 122.455 64.4088 122.496C64.2296 122.538 64.0436 122.586 63.8506 122.641C63.6026 122.71 63.3476 122.772 63.0858 122.827C62.8377 122.868 62.5621 122.889 62.2589 122.889C62.1487 122.889 62.0453 122.889 61.9488 122.889C61.8524 122.875 61.749 122.861 61.6388 122.848L61.432 122.806C61.4045 122.655 61.3769 122.572 61.3494 122.558C61.3218 122.531 61.2942 122.503 61.2667 122.476C61.1978 122.407 61.122 122.317 61.0393 122.207C60.9704 122.083 60.9566 121.931 60.9979 121.752C60.929 121.628 60.8877 121.504 60.8739 121.38C60.7912 121.545 60.7292 121.718 60.6879 121.897L60.6052 122.103L60.3984 122.145C60.3709 122.159 60.3502 122.193 60.3364 122.248C60.3226 122.29 60.3158 122.324 60.3158 122.352L60.2124 122.703C60.1848 122.731 60.1573 122.758 60.1297 122.786C60.1021 122.799 60.0746 122.82 60.047 122.848C60.0195 122.972 59.985 123.096 59.9437 123.22C59.9023 123.344 59.861 123.461 59.8196 123.571C59.7507 123.75 59.6887 123.929 59.6336 124.109C59.5922 124.274 59.5785 124.439 59.5922 124.605L59.5096 124.832C59.4406 124.915 59.3649 124.984 59.2822 125.039C59.1995 125.08 59.1168 125.122 59.0341 125.163C59.0065 125.19 58.9652 125.218 58.9101 125.246C58.8687 125.259 58.8343 125.273 58.8067 125.287L58.7447 125.514L58.4966 125.556C58.345 125.583 58.2348 125.604 58.1659 125.618C58.1108 125.631 58.0419 125.638 57.9592 125.638L57.7524 125.618C57.6009 125.494 57.4837 125.397 57.401 125.328C57.3183 125.246 57.2219 125.17 57.1116 125.101C56.9876 124.936 56.9187 124.811 56.9049 124.729C56.8911 124.646 56.8773 124.57 56.8636 124.501C56.836 124.419 56.8222 124.35 56.8222 124.295C56.8084 124.24 56.7878 124.198 56.7602 124.171L56.4915 123.923L56.7189 123.737L56.7395 123.385C57.0151 122.682 57.3046 122.007 57.6077 121.359C57.9247 120.712 58.2486 120.05 58.5793 119.375C58.6896 119.154 58.7929 118.934 58.8894 118.713C58.9996 118.493 59.1099 118.272 59.2201 118.052C59.2064 118.01 59.1995 117.962 59.1995 117.907C59.1995 117.852 59.2133 117.79 59.2408 117.721C59.3924 117.487 59.5164 117.28 59.6129 117.101C59.7094 116.908 59.8059 116.715 59.9023 116.522C60.0126 116.288 60.1228 116.06 60.2331 115.84C60.3571 115.619 60.5087 115.392 60.6879 115.158L61.0186 115.013C61.0599 114.999 61.1082 114.985 61.1633 114.972C61.2184 114.944 61.2804 114.93 61.3494 114.93L61.6594 114.972C62.0453 114.793 62.3829 114.544 62.6724 114.227C62.9618 113.897 63.2581 113.504 63.5612 113.049L63.768 112.76L64.0367 112.925C64.1056 112.966 64.2021 113.008 64.3261 113.049C64.4501 113.077 64.5811 113.111 64.7189 113.153C64.9669 113.208 65.2012 113.27 65.4217 113.339C65.6422 113.407 65.8214 113.511 65.9592 113.649C66.0419 113.869 66.0901 114.035 66.1039 114.145C66.1177 114.255 66.1383 114.365 66.1659 114.476C66.2072 114.71 66.2417 114.944 66.2693 115.178C66.3106 115.413 66.3382 115.675 66.3519 115.964C66.4209 116.198 66.476 116.432 66.5173 116.667C66.5724 116.887 66.6207 117.115 66.662 117.349C66.7309 117.68 66.7998 118.004 66.8687 118.321C66.9376 118.624 67.0272 118.913 67.1375 119.189C67.2477 119.189 67.3166 119.196 67.3442 119.209C67.4131 119.182 67.482 119.161 67.5509 119.147C67.6336 119.134 67.7232 119.12 67.8197 119.106L68.047 119.085L68.1297 119.292C68.1435 119.361 68.2124 119.43 68.3364 119.499C68.5156 119.513 68.6465 119.554 68.7292 119.623C68.8119 119.678 68.8877 119.74 68.9566 119.809C69.0117 119.864 69.0669 119.905 69.122 119.933L69.4321 120.057L69.2667 120.367C69.1289 120.615 68.929 120.856 68.6672 121.091C68.4191 121.311 68.1366 121.497 67.8197 121.649C67.8334 121.731 67.8403 121.814 67.8403 121.897C67.8541 121.966 67.8748 122.041 67.9023 122.124C67.9437 122.358 67.9781 122.6 68.0057 122.848C68.0333 123.096 68.0333 123.351 68.0057 123.613L67.9644 123.695ZM61.9902 120.119C62.4036 120.091 62.7757 120.064 63.1065 120.036C63.451 119.995 63.83 119.933 64.2434 119.85C64.1469 119.437 64.0436 119.01 63.9333 118.569C63.8231 118.114 63.7059 117.666 63.5819 117.225L63.4579 117.432C63.1823 117.721 62.9135 118.045 62.6517 118.403C62.4036 118.762 62.19 119.099 62.0109 119.416C61.9282 119.54 61.8455 119.664 61.7628 119.788C61.6801 119.912 61.6043 120.036 61.5354 120.16C61.6181 120.147 61.6939 120.14 61.7628 120.14C61.8455 120.14 61.9213 120.133 61.9902 120.119ZM81.9418 115.488C81.5973 115.488 81.2252 115.516 80.8256 115.571C80.4259 115.612 80.0331 115.661 79.6473 115.716C79.3716 115.757 79.1029 115.792 78.8411 115.819C78.593 115.847 78.3656 115.867 78.1589 115.881C78.0624 116.184 77.966 116.453 77.8695 116.687C77.773 116.922 77.6697 117.149 77.5594 117.37C77.4492 117.604 77.3458 117.845 77.2493 118.093C77.1666 118.327 77.084 118.582 77.0013 118.858C76.8635 119.078 76.7463 119.285 76.6498 119.478C76.5672 119.657 76.4983 119.864 76.4431 120.098C76.2778 120.305 76.1537 120.526 76.071 120.76C75.9883 120.98 75.9263 121.173 75.885 121.339L75.8023 121.587C75.7196 121.669 75.6714 121.738 75.6576 121.793C75.6438 121.835 75.6094 121.876 75.5542 121.917C75.5405 122.069 75.4922 122.221 75.4095 122.372C75.382 122.441 75.3613 122.51 75.3475 122.579C75.3337 122.634 75.3268 122.675 75.3268 122.703C75.3268 122.841 75.2924 122.93 75.2235 122.972C75.2373 123.041 75.2373 123.116 75.2235 123.199C75.2097 123.268 75.1959 123.337 75.1821 123.406C75.1408 123.571 75.127 123.702 75.1408 123.799C75.1821 123.854 75.2166 123.902 75.2442 123.943C75.2855 123.985 75.3131 124.04 75.3268 124.109C75.4095 124.164 75.4716 124.198 75.5129 124.212C75.568 124.253 75.6507 124.302 75.761 124.357L75.947 124.563C76.0159 124.963 75.9539 125.28 75.761 125.514C75.5542 125.776 75.2028 125.907 74.7067 125.907H74.4586C74.3897 125.838 74.3484 125.783 74.3346 125.742C74.2243 125.7 74.1348 125.666 74.0659 125.638C73.997 125.611 73.9349 125.556 73.8798 125.473C73.7007 125.39 73.556 125.321 73.4457 125.266L73.2597 125.163C73.2597 125.011 73.2597 124.929 73.2597 124.915C73.1632 124.791 73.0874 124.653 73.0323 124.501C72.9909 124.35 72.9565 124.198 72.9289 124.047C72.9013 123.923 72.8669 123.805 72.8256 123.695C72.798 123.585 72.7566 123.488 72.7015 123.406C72.674 122.606 72.7498 121.931 72.9289 121.38C73.1081 120.829 73.2941 120.298 73.4871 119.788C73.5973 119.513 73.7076 119.237 73.8178 118.961C73.9281 118.672 74.0245 118.376 74.1072 118.072L74.2933 117.866C74.3897 117.645 74.4655 117.466 74.5206 117.328C74.5896 117.177 74.6585 117.025 74.7274 116.873C74.7687 116.777 74.8032 116.687 74.8307 116.605C74.8721 116.508 74.9065 116.426 74.9341 116.357C74.8514 116.357 74.7756 116.364 74.7067 116.377C74.6378 116.377 74.5689 116.384 74.5 116.398C74.4173 116.412 74.3415 116.426 74.2726 116.439C74.2037 116.439 74.1348 116.439 74.0659 116.439C73.9694 116.439 73.9005 116.432 73.8591 116.419C73.7076 116.488 73.5422 116.522 73.363 116.522H73.1563C73.115 116.522 73.0736 116.522 73.0323 116.522C73.0047 116.508 72.9771 116.501 72.9496 116.501C72.8118 116.501 72.7015 116.522 72.6188 116.563C72.4535 116.563 72.295 116.563 72.1434 116.563H71.9367C71.9091 116.563 71.8746 116.57 71.8333 116.584C71.792 116.584 71.7575 116.584 71.7299 116.584C71.6335 116.584 71.5301 116.577 71.4199 116.563C71.3096 116.536 71.1925 116.488 71.0684 116.419C70.9031 116.198 70.7928 116.081 70.7377 116.067L70.5516 115.819C70.5379 115.737 70.5172 115.661 70.4896 115.592C70.4621 115.509 70.4345 115.42 70.4069 115.323C70.3518 115.185 70.2967 115.041 70.2416 114.889C70.2002 114.724 70.1796 114.531 70.1796 114.31C70.1933 114.2 70.2209 114.117 70.2622 114.062C70.3036 114.007 70.338 113.959 70.3656 113.917L70.4276 113.607L70.6963 113.628H71.2752C71.7162 113.628 72.1641 113.614 72.6188 113.587C73.0736 113.545 73.5422 113.504 74.0245 113.463C74.3001 113.435 74.5758 113.407 74.8514 113.38C75.1408 113.352 75.4371 113.325 75.7403 113.297C75.7954 113.173 75.8505 113.056 75.9057 112.946L76.1124 112.842C76.3604 112.829 76.5327 112.863 76.6292 112.946C76.7394 113.015 76.829 113.084 76.8979 113.153C77.2011 113.125 77.5043 113.097 77.8075 113.07C78.1244 113.029 78.4414 112.98 78.7584 112.925C79.2269 112.856 79.6955 112.794 80.1641 112.739C80.6464 112.684 81.1081 112.656 81.5491 112.656C81.742 112.656 81.9281 112.663 82.1072 112.677C82.2864 112.691 82.4518 112.712 82.6033 112.739L82.8101 112.884C82.8514 112.966 82.9065 113.042 82.9754 113.111C83.0581 113.18 83.1408 113.249 83.2235 113.318C83.3889 113.47 83.5543 113.649 83.7196 113.855C83.885 114.062 83.947 114.365 83.9057 114.765C83.7954 114.93 83.7127 115.027 83.6576 115.054L83.4716 115.302L83.2648 115.282C83.1822 115.282 83.1064 115.296 83.0375 115.323C82.9686 115.337 82.8996 115.358 82.8307 115.385C82.7756 115.413 82.7205 115.44 82.6654 115.468C82.6102 115.482 82.5482 115.495 82.4793 115.509C82.3553 115.509 82.2519 115.509 82.1692 115.509C82.1003 115.495 82.0245 115.488 81.9418 115.488ZM85.5627 123.282C85.4111 123.833 85.2733 124.253 85.1493 124.543C85.039 124.818 84.8668 125.108 84.6325 125.411C84.4533 125.383 84.3293 125.404 84.2604 125.473C84.1915 125.542 84.1157 125.604 84.033 125.659C83.909 125.687 83.8194 125.687 83.7643 125.659C83.7092 125.631 83.6609 125.597 83.6196 125.556C83.5782 125.528 83.5231 125.494 83.4542 125.452C83.3991 125.425 83.3095 125.411 83.1855 125.411C83.1579 125.301 83.1235 125.197 83.0821 125.101C83.0545 125.004 82.965 124.97 82.8134 124.998C82.8409 124.887 82.8478 124.798 82.834 124.729C82.8203 124.646 82.7996 124.577 82.772 124.522C82.7582 124.453 82.7445 124.391 82.7307 124.336C82.7169 124.267 82.7238 124.184 82.7514 124.088C82.6825 124.088 82.6273 124.04 82.586 123.943C82.5446 123.847 82.4964 123.75 82.4413 123.654C82.4826 123.406 82.524 123.172 82.5653 122.951C82.6067 122.731 82.6549 122.524 82.71 122.331C82.7789 122.138 82.834 121.945 82.8754 121.752C82.9167 121.559 82.8961 121.359 82.8134 121.153C82.8685 121.194 82.9098 121.187 82.9374 121.132C82.965 121.063 82.9856 120.98 82.9994 120.884C83.0132 120.774 83.0201 120.67 83.0201 120.574C83.0201 120.463 83.0132 120.374 82.9994 120.305C83.1372 119.947 83.2475 119.581 83.3302 119.209C83.4266 118.824 83.5093 118.445 83.5782 118.072C83.6609 117.7 83.7436 117.335 83.8263 116.977C83.909 116.619 84.0192 116.288 84.157 115.985C84.3086 115.957 84.474 115.978 84.6532 116.047C84.8461 116.102 84.9632 116.178 85.0046 116.274C85.3629 115.998 85.6799 115.668 85.9555 115.282C86.2311 114.882 86.5136 114.496 86.803 114.124C87.0925 113.752 87.4094 113.421 87.754 113.132C88.1123 112.842 88.5602 112.67 89.0976 112.615C89.3732 112.822 89.6764 113.035 90.0072 113.256C90.3517 113.463 90.6342 113.738 90.8547 114.083C90.965 114.138 91.0546 114.2 91.1235 114.269C91.2062 114.324 91.3026 114.386 91.4129 114.455V114.703C91.5782 114.855 91.7092 115.034 91.8056 115.24C91.9159 115.433 92.0124 115.647 92.095 115.881C92.1777 116.102 92.2604 116.329 92.3431 116.563C92.4258 116.784 92.5223 116.998 92.6325 117.204C92.605 117.273 92.5912 117.335 92.5912 117.39C92.5912 117.432 92.5981 117.48 92.6118 117.535C92.6394 117.59 92.6601 117.645 92.6739 117.7C92.6876 117.755 92.6876 117.831 92.6739 117.928C92.6325 118.534 92.4327 119.023 92.0744 119.395C91.7298 119.768 91.3095 120.078 90.8134 120.326C90.3173 120.56 89.7867 120.76 89.2217 120.925C88.6566 121.091 88.1467 121.27 87.6919 121.463C87.6919 121.518 87.7126 121.545 87.754 121.545C87.8091 121.545 87.8297 121.58 87.816 121.649C88.1467 121.855 88.4086 122.021 88.6015 122.145C88.7944 122.269 88.9736 122.372 89.139 122.455C89.3181 122.538 89.5042 122.613 89.6971 122.682C89.9038 122.737 90.1863 122.806 90.5447 122.889C90.903 122.972 91.1786 123.041 91.3715 123.096C91.5782 123.137 91.7643 123.178 91.9297 123.22C92.095 123.247 92.2604 123.275 92.4258 123.302C92.605 123.316 92.853 123.337 93.17 123.364C93.294 123.488 93.3974 123.64 93.4801 123.819C93.5765 123.985 93.6385 124.157 93.6661 124.336C93.6937 124.501 93.7006 124.667 93.6868 124.832C93.673 124.984 93.6248 125.108 93.5421 125.204C93.5559 125.246 93.5834 125.266 93.6248 125.266C93.6799 125.252 93.735 125.252 93.7901 125.266C93.7075 125.321 93.6385 125.39 93.5834 125.473C93.5283 125.556 93.4732 125.638 93.418 125.721C93.3629 125.804 93.3009 125.873 93.232 125.928C93.1631 125.997 93.0666 126.038 92.9426 126.052C92.5154 126.217 91.9779 126.224 91.3302 126.072C90.6825 125.935 89.8625 125.673 88.8702 125.287C88.3741 125.094 87.9676 124.929 87.6506 124.791C87.3474 124.639 87.0787 124.495 86.8444 124.357C86.6239 124.205 86.4172 124.047 86.2242 123.881C86.0451 123.716 85.8246 123.516 85.5627 123.282ZM88.5188 116.191C88.3672 116.412 88.195 116.612 88.002 116.791C87.8229 116.97 87.6437 117.156 87.4645 117.349C87.2992 117.528 87.1476 117.735 87.0098 117.969C86.872 118.19 86.7755 118.451 86.7204 118.755C87.2027 118.699 87.7057 118.569 88.2294 118.362C88.7531 118.141 89.2492 117.935 89.7178 117.742C89.6627 117.314 89.5111 116.97 89.263 116.708C89.0287 116.446 88.7807 116.274 88.5188 116.191ZM99.9743 123.985C100.043 124.398 100.016 124.722 99.8917 124.956C99.7814 125.19 99.616 125.363 99.3955 125.473C99.1888 125.597 98.9476 125.666 98.672 125.68C98.3964 125.693 98.1345 125.68 97.8865 125.638C97.7487 125.445 97.6246 125.204 97.5144 124.915C97.4041 124.625 97.3008 124.329 97.2043 124.026C97.1078 123.709 97.0183 123.399 96.9356 123.096C96.8667 122.793 96.8047 122.524 96.7495 122.29C96.8184 122.124 96.8598 121.938 96.8736 121.731C96.9011 121.511 96.9149 121.29 96.9149 121.07C96.9287 120.849 96.9356 120.629 96.9356 120.408C96.9494 120.174 96.97 119.954 96.9976 119.747C97.0941 119.168 97.2319 118.617 97.411 118.093C97.604 117.569 97.7556 117.025 97.8658 116.46C97.8934 116.336 97.8796 116.219 97.8245 116.109C97.7831 115.998 97.7762 115.895 97.8038 115.799C97.8176 115.743 97.8589 115.709 97.9278 115.695C97.9967 115.668 98.0381 115.619 98.0519 115.55C98.0932 115.399 98.1001 115.275 98.0725 115.178C98.0587 115.082 98.0863 114.965 98.1552 114.827C98.2241 114.717 98.3068 114.558 98.4033 114.352C98.5135 114.131 98.5549 113.904 98.5273 113.669C98.6513 113.587 98.7685 113.49 98.8787 113.38C98.989 113.27 99.0992 113.173 99.2095 113.091C99.3335 112.994 99.4644 112.911 99.6022 112.842C99.7538 112.774 99.933 112.739 100.14 112.739C100.25 112.877 100.319 113.029 100.346 113.194C100.388 113.359 100.422 113.525 100.45 113.69C100.491 113.855 100.546 114.014 100.615 114.165C100.684 114.303 100.801 114.414 100.967 114.496C100.967 114.606 100.967 114.744 100.967 114.91C100.967 115.075 100.973 115.24 100.987 115.406C101.001 115.557 101.029 115.702 101.07 115.84C101.125 115.964 101.208 116.047 101.318 116.088C101.07 116.749 100.836 117.404 100.615 118.052C100.408 118.699 100.236 119.354 100.098 120.016C99.9606 120.663 99.871 121.318 99.8296 121.979C99.8021 122.641 99.8503 123.309 99.9743 123.985ZM117.321 111.54C117.404 111.65 117.487 111.788 117.569 111.954C117.652 112.119 117.659 112.271 117.59 112.408C117.838 112.656 118.031 112.96 118.169 113.318C118.32 113.676 118.307 114.069 118.128 114.496C117.811 114.606 117.528 114.696 117.28 114.765C117.046 114.82 116.791 114.889 116.515 114.972C115.991 114.999 115.661 115.02 115.523 115.034C115.399 115.047 115.302 115.061 115.233 115.075C115.165 115.089 115.054 115.116 114.903 115.158C114.765 115.185 114.455 115.234 113.973 115.302C113.973 115.247 113.966 115.213 113.952 115.199C113.952 115.185 113.938 115.185 113.91 115.199C113.897 115.213 113.876 115.227 113.848 115.24C113.835 115.254 113.807 115.254 113.766 115.24C113.49 115.337 113.215 115.413 112.939 115.468C112.663 115.509 112.388 115.55 112.112 115.592C111.836 115.633 111.561 115.688 111.285 115.757C111.01 115.812 110.727 115.909 110.438 116.047C110.465 116.116 110.507 116.171 110.562 116.212C110.617 116.24 110.672 116.274 110.727 116.315C110.796 116.343 110.858 116.377 110.913 116.419C110.968 116.46 111.01 116.515 111.037 116.584C111.423 116.681 111.74 116.839 111.988 117.06C112.25 117.266 112.484 117.507 112.691 117.783C112.898 118.045 113.097 118.314 113.29 118.589C113.483 118.865 113.711 119.113 113.973 119.333C113.973 119.416 113.993 119.478 114.035 119.519C114.076 119.561 114.083 119.637 114.055 119.747C114.303 120.064 114.496 120.443 114.634 120.884C114.772 121.325 114.799 121.835 114.717 122.414C114.538 122.855 114.324 123.234 114.076 123.55C113.828 123.854 113.504 124.171 113.104 124.501C112.787 124.639 112.477 124.749 112.174 124.832C111.871 124.901 111.602 125.011 111.368 125.163C111.258 125.094 111.154 125.066 111.058 125.08C110.975 125.08 110.899 125.066 110.83 125.039C110.513 125.177 110.176 125.273 109.817 125.328C109.459 125.37 109.08 125.294 108.681 125.101C108.391 125.115 108.095 125.108 107.792 125.08C107.502 125.039 107.233 124.97 106.985 124.873C106.737 124.777 106.524 124.646 106.345 124.481C106.179 124.302 106.069 124.081 106.014 123.819C105.697 123.557 105.49 123.234 105.394 122.848C105.297 122.448 105.345 122.062 105.538 121.69C105.621 121.662 105.683 121.642 105.724 121.628C105.78 121.6 105.848 121.552 105.931 121.483C106.662 121.552 107.406 121.614 108.164 121.669C108.935 121.711 109.755 121.649 110.624 121.483C110.651 121.373 110.699 121.297 110.768 121.256C110.851 121.201 110.941 121.153 111.037 121.111C111.134 121.07 111.223 121.029 111.306 120.987C111.389 120.946 111.451 120.884 111.492 120.801C111.492 120.718 111.471 120.663 111.43 120.636C111.389 120.594 111.347 120.56 111.306 120.532C111.264 120.491 111.223 120.45 111.182 120.408C111.154 120.367 111.147 120.298 111.161 120.202C110.982 120.202 110.768 120.14 110.52 120.016C110.286 119.892 110.1 119.754 109.962 119.602C109.356 119.492 108.749 119.285 108.143 118.982C107.55 118.679 106.972 118.396 106.407 118.134C106.31 117.969 106.2 117.817 106.076 117.68C105.966 117.528 105.855 117.376 105.745 117.225C105.635 117.06 105.538 116.894 105.456 116.729C105.387 116.563 105.345 116.384 105.332 116.191C105.345 115.971 105.359 115.764 105.373 115.571C105.387 115.364 105.401 115.165 105.414 114.972C105.428 114.765 105.449 114.558 105.476 114.352C105.504 114.131 105.545 113.897 105.6 113.649C106.193 112.836 106.93 112.153 107.812 111.602C108.708 111.037 109.625 110.575 110.562 110.217C110.713 110.369 110.865 110.534 111.016 110.713C111.168 110.879 111.327 111.037 111.492 111.189C111.657 111.34 111.83 111.471 112.009 111.581C112.202 111.692 112.415 111.754 112.65 111.768C112.801 111.726 112.918 111.699 113.001 111.685C113.084 111.671 113.159 111.664 113.228 111.664C113.297 111.664 113.387 111.664 113.497 111.664C113.607 111.664 113.766 111.65 113.973 111.623C114.179 111.595 114.379 111.581 114.572 111.581C114.765 111.581 114.944 111.575 115.109 111.561C115.454 111.533 115.702 111.506 115.854 111.478C116.019 111.451 116.129 111.43 116.184 111.416C116.24 111.402 116.267 111.395 116.267 111.395C116.267 111.382 116.288 111.382 116.329 111.395C116.384 111.395 116.481 111.409 116.619 111.437C116.756 111.464 116.991 111.499 117.321 111.54ZM131.506 111.54C131.588 111.65 131.671 111.788 131.754 111.954C131.836 112.119 131.843 112.271 131.774 112.408C132.022 112.656 132.215 112.96 132.353 113.318C132.505 113.676 132.491 114.069 132.312 114.496C131.995 114.606 131.712 114.696 131.464 114.765C131.23 114.82 130.975 114.889 130.699 114.972C130.176 114.999 129.845 115.02 129.707 115.034C129.583 115.047 129.487 115.061 129.418 115.075C129.349 115.089 129.239 115.116 129.087 115.158C128.949 115.185 128.639 115.234 128.157 115.302C128.157 115.247 128.15 115.213 128.136 115.199C128.136 115.185 128.122 115.185 128.095 115.199C128.081 115.213 128.06 115.227 128.033 115.24C128.019 115.254 127.991 115.254 127.95 115.24C127.674 115.337 127.399 115.413 127.123 115.468C126.847 115.509 126.572 115.55 126.296 115.592C126.021 115.633 125.745 115.688 125.469 115.757C125.194 115.812 124.911 115.909 124.622 116.047C124.649 116.116 124.691 116.171 124.746 116.212C124.801 116.24 124.856 116.274 124.911 116.315C124.98 116.343 125.042 116.377 125.097 116.419C125.152 116.46 125.194 116.515 125.221 116.584C125.607 116.681 125.924 116.839 126.172 117.06C126.434 117.266 126.668 117.507 126.875 117.783C127.082 118.045 127.282 118.314 127.475 118.589C127.667 118.865 127.895 119.113 128.157 119.333C128.157 119.416 128.177 119.478 128.219 119.519C128.26 119.561 128.267 119.637 128.239 119.747C128.487 120.064 128.68 120.443 128.818 120.884C128.956 121.325 128.984 121.835 128.901 122.414C128.722 122.855 128.508 123.234 128.26 123.55C128.012 123.854 127.688 124.171 127.289 124.501C126.972 124.639 126.661 124.749 126.358 124.832C126.055 124.901 125.786 125.011 125.552 125.163C125.442 125.094 125.338 125.066 125.242 125.08C125.159 125.08 125.083 125.066 125.015 125.039C124.698 125.177 124.36 125.273 124.002 125.328C123.643 125.37 123.264 125.294 122.865 125.101C122.575 125.115 122.279 125.108 121.976 125.08C121.686 125.039 121.418 124.97 121.17 124.873C120.922 124.777 120.708 124.646 120.529 124.481C120.363 124.302 120.253 124.081 120.198 123.819C119.881 123.557 119.674 123.234 119.578 122.848C119.481 122.448 119.53 122.062 119.723 121.69C119.805 121.662 119.867 121.642 119.909 121.628C119.964 121.6 120.033 121.552 120.115 121.483C120.846 121.552 121.59 121.614 122.348 121.669C123.12 121.711 123.94 121.649 124.808 121.483C124.835 121.373 124.884 121.297 124.953 121.256C125.035 121.201 125.125 121.153 125.221 121.111C125.318 121.07 125.407 121.029 125.49 120.987C125.573 120.946 125.635 120.884 125.676 120.801C125.676 120.718 125.655 120.663 125.614 120.636C125.573 120.594 125.531 120.56 125.49 120.532C125.449 120.491 125.407 120.45 125.366 120.408C125.338 120.367 125.332 120.298 125.345 120.202C125.166 120.202 124.953 120.14 124.705 120.016C124.47 119.892 124.284 119.754 124.146 119.602C123.54 119.492 122.934 119.285 122.327 118.982C121.735 118.679 121.156 118.396 120.591 118.134C120.494 117.969 120.384 117.817 120.26 117.68C120.15 117.528 120.04 117.376 119.929 117.225C119.819 117.06 119.723 116.894 119.64 116.729C119.571 116.563 119.53 116.384 119.516 116.191C119.53 115.971 119.543 115.764 119.557 115.571C119.571 115.364 119.585 115.165 119.599 114.972C119.612 114.765 119.633 114.558 119.661 114.352C119.688 114.131 119.729 113.897 119.785 113.649C120.377 112.836 121.114 112.153 121.996 111.602C122.892 111.037 123.809 110.575 124.746 110.217C124.897 110.369 125.049 110.534 125.201 110.713C125.352 110.879 125.511 111.037 125.676 111.189C125.841 111.34 126.014 111.471 126.193 111.581C126.386 111.692 126.599 111.754 126.834 111.768C126.985 111.726 127.102 111.699 127.185 111.685C127.268 111.671 127.344 111.664 127.413 111.664C127.481 111.664 127.571 111.664 127.681 111.664C127.792 111.664 127.95 111.65 128.157 111.623C128.363 111.595 128.563 111.581 128.756 111.581C128.949 111.581 129.128 111.575 129.294 111.561C129.638 111.533 129.886 111.506 130.038 111.478C130.203 111.451 130.313 111.43 130.369 111.416C130.424 111.402 130.451 111.395 130.451 111.395C130.451 111.382 130.472 111.382 130.513 111.395C130.568 111.395 130.665 111.409 130.803 111.437C130.941 111.464 131.175 111.499 131.506 111.54ZM145.69 111.54C145.772 111.65 145.855 111.788 145.938 111.954C146.021 112.119 146.027 112.271 145.959 112.408C146.207 112.656 146.4 112.96 146.537 113.318C146.689 113.676 146.675 114.069 146.496 114.496C146.179 114.606 145.897 114.696 145.648 114.765C145.414 114.82 145.159 114.889 144.884 114.972C144.36 114.999 144.029 115.02 143.891 115.034C143.767 115.047 143.671 115.061 143.602 115.075C143.533 115.089 143.423 115.116 143.271 115.158C143.133 115.185 142.823 115.234 142.341 115.302C142.341 115.247 142.334 115.213 142.32 115.199C142.32 115.185 142.306 115.185 142.279 115.199C142.265 115.213 142.244 115.227 142.217 115.24C142.203 115.254 142.176 115.254 142.134 115.24C141.859 115.337 141.583 115.413 141.307 115.468C141.032 115.509 140.756 115.55 140.48 115.592C140.205 115.633 139.929 115.688 139.654 115.757C139.378 115.812 139.095 115.909 138.806 116.047C138.834 116.116 138.875 116.171 138.93 116.212C138.985 116.24 139.04 116.274 139.095 116.315C139.164 116.343 139.226 116.377 139.282 116.419C139.337 116.46 139.378 116.515 139.406 116.584C139.791 116.681 140.108 116.839 140.356 117.06C140.618 117.266 140.853 117.507 141.059 117.783C141.266 118.045 141.466 118.314 141.659 118.589C141.852 118.865 142.079 119.113 142.341 119.333C142.341 119.416 142.362 119.478 142.403 119.519C142.444 119.561 142.451 119.637 142.424 119.747C142.672 120.064 142.865 120.443 143.002 120.884C143.14 121.325 143.168 121.835 143.085 122.414C142.906 122.855 142.692 123.234 142.444 123.55C142.196 123.854 141.872 124.171 141.473 124.501C141.156 124.639 140.846 124.749 140.542 124.832C140.239 124.901 139.971 125.011 139.736 125.163C139.626 125.094 139.523 125.066 139.426 125.08C139.344 125.08 139.268 125.066 139.199 125.039C138.882 125.177 138.544 125.273 138.186 125.328C137.828 125.37 137.449 125.294 137.049 125.101C136.76 125.115 136.463 125.108 136.16 125.08C135.871 125.039 135.602 124.97 135.354 124.873C135.106 124.777 134.892 124.646 134.713 124.481C134.548 124.302 134.437 124.081 134.382 123.819C134.065 123.557 133.859 123.234 133.762 122.848C133.666 122.448 133.714 122.062 133.907 121.69C133.99 121.662 134.052 121.642 134.093 121.628C134.148 121.6 134.217 121.552 134.3 121.483C135.03 121.552 135.774 121.614 136.532 121.669C137.304 121.711 138.124 121.649 138.992 121.483C139.02 121.373 139.068 121.297 139.137 121.256C139.219 121.201 139.309 121.153 139.406 121.111C139.502 121.07 139.592 121.029 139.674 120.987C139.757 120.946 139.819 120.884 139.86 120.801C139.86 120.718 139.84 120.663 139.798 120.636C139.757 120.594 139.716 120.56 139.674 120.532C139.633 120.491 139.592 120.45 139.55 120.408C139.523 120.367 139.516 120.298 139.53 120.202C139.35 120.202 139.137 120.14 138.889 120.016C138.654 119.892 138.468 119.754 138.331 119.602C137.724 119.492 137.118 119.285 136.511 118.982C135.919 118.679 135.34 118.396 134.775 118.134C134.679 117.969 134.568 117.817 134.444 117.68C134.334 117.528 134.224 117.376 134.114 117.225C134.003 117.06 133.907 116.894 133.824 116.729C133.755 116.563 133.714 116.384 133.7 116.191C133.714 115.971 133.728 115.764 133.741 115.571C133.755 115.364 133.769 115.165 133.783 114.972C133.797 114.765 133.817 114.558 133.845 114.352C133.872 114.131 133.914 113.897 133.969 113.649C134.561 112.836 135.299 112.153 136.181 111.602C137.077 111.037 137.993 110.575 138.93 110.217C139.082 110.369 139.233 110.534 139.385 110.713C139.536 110.879 139.695 111.037 139.86 111.189C140.026 111.34 140.198 111.471 140.377 111.581C140.57 111.692 140.784 111.754 141.018 111.768C141.17 111.726 141.287 111.699 141.369 111.685C141.452 111.671 141.528 111.664 141.597 111.664C141.666 111.664 141.755 111.664 141.865 111.664C141.976 111.664 142.134 111.65 142.341 111.623C142.548 111.595 142.747 111.581 142.94 111.581C143.133 111.581 143.313 111.575 143.478 111.561C143.822 111.533 144.07 111.506 144.222 111.478C144.387 111.451 144.498 111.43 144.553 111.416C144.608 111.402 144.636 111.395 144.636 111.395C144.636 111.382 144.656 111.382 144.698 111.395C144.753 111.395 144.849 111.409 144.987 111.437C145.125 111.464 145.359 111.499 145.69 111.54Z" fill="white"/>
<g filter="url(#filter1_ddi_119_2576)">
<path d="M87.2793 28.7826L110.696 42.189L111.029 42.4012L111.352 42.6639L111.72 42.9132C113.021 43.8595 114.094 45.0702 114.863 46.4607C115.632 47.8512 116.08 49.388 116.174 50.9638L116.192 51.6509V76.1867C116.192 80.1446 113.961 83.7859 110.561 85.5947L86.9567 100.086C83.5569 101.898 79.4424 101.898 75.8552 99.978L52.6289 85.7059C50.8701 84.7702 49.402 83.3933 48.3781 81.7189C47.3541 80.0445 46.8118 78.134 46.8076 76.1867V51.6475C46.8076 47.9221 48.7851 44.4795 51.9282 42.5359L76.0391 28.732C79.5083 26.8726 83.7199 26.8726 87.2793 28.7826ZM90.2767 48.0602C89.8904 47.8257 89.4602 47.6674 89.0109 47.5944C88.5616 47.5213 88.1018 47.5349 87.6579 47.6344C87.214 47.7339 86.7946 47.9173 86.4237 48.1741C86.0528 48.4309 85.7376 48.7562 85.4961 49.1313L78.0304 60.7255V50.9166C78.0303 50.0916 77.7183 49.2952 77.1537 48.6787C76.5891 48.0622 84.6956 37.9547 83.8517 37.8582V33.4311L73.8393 46.6334C73.188 47.3735 72.7587 47.903 72.1081 48.5347C71.4575 49.1665 71.092 50.0232 71.092 50.9166V77.8641C71.092 78.7575 71.4575 79.6143 72.1081 80.246C73.2694 80.9092 73.7579 82.1296 73.7579 82.1296C74.678 82.1296 82.2264 93.1177 82.877 92.4859C85.4961 92.4859 78.0304 78.7575 78.0304 77.8641V68.0485L85.4961 79.6494C85.9467 80.3497 86.6465 80.8649 87.4626 81.0972C88.2787 81.3294 89.1542 81.2625 89.9228 80.9092L90.2767 80.7206L90.6063 80.4915C91.2694 79.9756 91.7145 79.2414 91.8571 78.428C91.9997 77.6146 91.8299 76.7787 91.3799 76.0789L83.8517 64.3904L91.3799 52.7019C91.6213 52.3268 91.7844 51.9091 91.8596 51.4729C91.9348 51.0366 91.9208 50.5902 91.8184 50.1592C91.7159 49.7281 91.5271 49.3209 91.2625 48.9608C90.998 48.6006 90.663 48.2946 90.2767 48.0602Z" fill="white"/>
</g>
<defs>
<filter id="filter0_d_119_2576" x="0.943999" y="0.295999" width="161.112" height="161.112" filterUnits="userSpaceOnUse" color-interpolation-filters="sRGB">
<feFlood flood-opacity="0" result="BackgroundImageFix"/>
<feColorMatrix in="SourceAlpha" type="matrix" values="0 0 0 0 0 0 0 0 0 0 0 0 0 0 0 0 0 0 127 0" result="hardAlpha"/>
<feOffset dy="2.352"/>
<feGaussianBlur stdDeviation="3.528"/>
<feComposite in2="hardAlpha" operator="out"/>
<feColorMatrix type="matrix" values="0 0 0 0 0.165174 0 0 0 0 0.516345 0 0 0 0 0.558333 0 0 0 1 0"/>
<feBlend mode="normal" in2="BackgroundImageFix" result="effect1_dropShadow_119_2576"/>
<feBlend mode="normal" in="SourceGraphic" in2="effect1_dropShadow_119_2576" result="shape"/>
</filter>
<filter id="filter1_ddi_119_2576" x="42.1036" y="27.3438" width="78.792" height="83.4959" filterUnits="userSpaceOnUse" color-interpolation-filters="sRGB">
<feFlood flood-opacity="0" result="BackgroundImageFix"/>
<feColorMatrix in="SourceAlpha" type="matrix" values="0 0 0 0 0 0 0 0 0 0 0 0 0 0 0 0 0 0 127 0" result="hardAlpha"/>
<feOffset dy="4.704"/>
<feGaussianBlur stdDeviation="2.352"/>
<feComposite in2="hardAlpha" operator="out"/>
<feColorMatrix type="matrix" values="0 0 0 0 0 0 0 0 0 0 0 0 0 0 0 0 0 0 0.25 0"/>
<feBlend mode="normal" in2="BackgroundImageFix" result="effect1_dropShadow_119_2576"/>
<feColorMatrix in="SourceAlpha" type="matrix" values="0 0 0 0 0 0 0 0 0 0 0 0 0 0 0 0 0 0 127 0" result="hardAlpha"/>
<feOffset dy="4.704"/>
<feGaussianBlur stdDeviation="2.352"/>
<feComposite in2="hardAlpha" operator="out"/>
<feColorMatrix type="matrix" values="0 0 0 0 0 0 0 0 0 0 0 0 0 0 0 0 0 0 0.25 0"/>
<feBlend mode="normal" in2="effect1_dropShadow_119_2576" result="effect2_dropShadow_119_2576"/>
<feBlend mode="normal" in="SourceGraphic" in2="effect2_dropShadow_119_2576" result="shape"/>
<feColorMatrix in="SourceAlpha" type="matrix" values="0 0 0 0 0 0 0 0 0 0 0 0 0 0 0 0 0 0 127 0" result="hardAlpha"/>
<feOffset dy="2.352"/>
<feGaussianBlur stdDeviation="2.352"/>
<feComposite in2="hardAlpha" operator="arithmetic" k2="-1" k3="1"/>
<feColorMatrix type="matrix" values="0 0 0 0 0 0 0 0 0 0 0 0 0 0 0 0 0 0 0.25 0"/>
<feBlend mode="normal" in2="shape" result="effect3_innerShadow_119_2576"/>
</filter>
</defs>
</svg>
