<svg width="37" height="37" viewBox="0 0 37 37" fill="none" xmlns="http://www.w3.org/2000/svg">
<path d="M18.5 5.10333V18.4999C18.5 18.8066 18.3782 19.1007 18.1613 19.3175C17.9445 19.5344 17.6504 19.6562 17.3438 19.6562C17.0371 19.6562 16.743 19.5344 16.5262 19.3175C16.3093 19.1007 16.1875 18.8066 16.1875 18.4999V5.10333L13.5368 7.75548C13.3198 7.97244 13.0256 8.09433 12.7188 8.09433C12.4119 8.09433 12.1177 7.97244 11.9007 7.75548C11.6837 7.53852 11.5619 7.24426 11.5619 6.93743C11.5619 6.63061 11.6837 6.33635 11.9007 6.11939L16.5257 1.49439C16.6331 1.38688 16.7606 1.3016 16.901 1.24341C17.0413 1.18522 17.1918 1.15527 17.3438 1.15527C17.4957 1.15527 17.6462 1.18522 17.7865 1.24341C17.9269 1.3016 18.0544 1.38688 18.1618 1.49439L22.7868 6.11939C23.0038 6.33635 23.1256 6.63061 23.1256 6.93743C23.1256 7.24426 23.0038 7.53852 22.7868 7.75548C22.5698 7.97244 22.2756 8.09433 21.9688 8.09433C21.6619 8.09433 21.3677 7.97244 21.1507 7.75548L18.5 5.10333ZM27.75 17.8669V13.8749C27.75 13.2616 27.5064 12.6734 27.0727 12.2397C26.639 11.8061 26.0508 11.5624 25.4375 11.5624H23.125C22.8183 11.5624 22.5242 11.6843 22.3074 11.9011C22.0906 12.1179 21.9688 12.412 21.9688 12.7187C21.9688 13.0253 22.0906 13.3194 22.3074 13.5363C22.5242 13.7531 22.8183 13.8749 23.125 13.8749H25.4375V25.4952C24.748 24.7909 23.8251 24.3623 22.842 24.2902C21.8589 24.218 20.8833 24.507 20.0983 25.1031C19.3132 25.6992 18.7728 26.5614 18.5783 27.5277C18.3838 28.494 18.5487 29.4981 19.042 30.3515L19.0767 30.4064L22.2939 35.3205C22.4618 35.5771 22.7248 35.7565 23.025 35.8193C23.3252 35.882 23.638 35.823 23.8946 35.6551C24.1513 35.4872 24.3307 35.2242 24.3934 34.924C24.4562 34.6238 24.3971 34.311 24.2292 34.0544L21.0307 29.1707C20.804 28.7703 20.7456 28.2962 20.8684 27.8528C20.9912 27.4094 21.2851 27.0329 21.6855 26.8061C22.0858 26.5794 22.5599 26.521 23.0033 26.6438C23.4468 26.7666 23.8233 27.0605 24.05 27.4609C24.0601 27.4797 24.0717 27.4985 24.0832 27.5158L25.6268 29.8731C25.7633 30.0812 25.9632 30.2397 26.1969 30.3251C26.4306 30.4105 26.6857 30.4182 26.9241 30.3471C27.1626 30.276 27.3717 30.1299 27.5205 29.9304C27.6693 29.731 27.7498 29.4889 27.75 29.2401V20.8124C28.8398 21.8213 29.7103 23.0437 30.307 24.4036C30.9038 25.7635 31.2142 27.2318 31.2188 28.7168V34.6874C31.2188 34.9941 31.3406 35.2882 31.5574 35.505C31.7742 35.7219 32.0683 35.8437 32.375 35.8437C32.6817 35.8437 32.9758 35.7219 33.1926 35.505C33.4094 35.2882 33.5312 34.9941 33.5312 34.6874V28.7111C33.5247 26.5692 32.9945 24.4614 31.9869 22.5713C30.9792 20.6812 29.5247 19.0662 27.75 17.8669ZM11.5625 11.5624H9.25C8.63669 11.5624 8.04849 11.8061 7.61482 12.2397C7.18114 12.6734 6.9375 13.2616 6.9375 13.8749V28.9062C6.9375 29.2128 7.05932 29.5069 7.27616 29.7238C7.493 29.9406 7.78709 30.0624 8.09375 30.0624C8.40041 30.0624 8.6945 29.9406 8.91134 29.7238C9.12818 29.5069 9.25 29.2128 9.25 28.9062V13.8749H11.5625C11.8692 13.8749 12.1633 13.7531 12.3801 13.5363C12.5969 13.3194 12.7188 13.0253 12.7188 12.7187C12.7188 12.412 12.5969 12.1179 12.3801 11.9011C12.1633 11.6843 11.8692 11.5624 11.5625 11.5624Z" fill="#237F8A"/>
</svg>
