<svg width="390" height="105" viewBox="0 0 390 105" fill="none" xmlns="http://www.w3.org/2000/svg">
<path fill-rule="evenodd" clip-rule="evenodd" d="M-0.944865 69.4188L15.352 57.9993C31.6489 46.5798 64.2422 23.0699 96.8531 21.7019C128.784 19.6635 161.411 38.4245 194.037 55.8436C226.663 73.2627 259.287 88.6689 291.905 96.0235C323.844 104.05 356.456 104.024 372.762 104.011L389.068 103.998L388.985 -0.00243691L372.679 0.0105896C356.373 0.023616 323.761 0.049669 291.829 0.0751792C259.217 0.101232 226.605 0.127285 193.993 0.153338C161.381 0.179391 128.769 0.205444 96.8359 0.230954C64.2239 0.257007 31.6119 0.28306 15.3059 0.296087L-1.00008 0.309113L-0.944865 69.4188Z" fill="#237F8A"/>
</svg>
