<svg width="93" height="43" viewBox="0 0 93 43" fill="none" xmlns="http://www.w3.org/2000/svg">
<path d="M21.499 1.71875C27.7042 10.2677 32.8815 14.0131 36.4932 16.834C38.3808 18.3083 39.7228 19.4473 40.623 20.8369C41.4969 22.1859 42 23.8505 42 26.4453C42 29.0769 40.7596 30.981 39.0469 32.2578C37.3052 33.5562 35.098 34.1798 33.3213 34.1807C29.1912 34.1805 26.0634 32.4931 24.1885 31.1016L22.4795 29.834L22.5938 31.959C22.728 34.4579 23.1268 36.7344 24.3145 38.7588C25.018 39.9579 25.9769 41.0288 27.2549 42H15.7451C17.0231 41.0288 17.982 39.9579 18.6855 38.7588C19.8732 36.7344 20.272 34.4579 20.4062 31.959L20.5205 29.835L18.8125 31.1016C16.9369 32.4927 13.8073 34.1834 9.67871 34.1816H9.67773C7.90424 34.1816 5.69753 33.5566 3.95508 32.2578C2.24156 30.9806 1 29.0766 1 26.4453C1.00001 23.8502 1.50305 22.185 2.37695 20.8359C3.27712 19.4465 4.61948 18.3081 6.50684 16.834C10.1183 14.0132 15.2945 10.2673 21.499 1.71875Z" stroke="#4100A6" stroke-width="2"/>
<path d="M46.499 1.71875C52.7042 10.2677 57.8815 14.0131 61.4932 16.834C63.3808 18.3083 64.7228 19.4473 65.623 20.8369C66.4969 22.1859 67 23.8505 67 26.4453C67 29.0769 65.7596 30.981 64.0469 32.2578C62.3052 33.5562 60.098 34.1798 58.3213 34.1807C54.1912 34.1805 51.0634 32.4931 49.1885 31.1016L47.4795 29.834L47.5938 31.959C47.728 34.4579 48.1268 36.7344 49.3145 38.7588C50.018 39.9579 50.9769 41.0288 52.2549 42H40.7451C42.0231 41.0288 42.982 39.9579 43.6855 38.7588C44.8732 36.7344 45.272 34.4579 45.4062 31.959L45.5205 29.835L43.8125 31.1016C41.9369 32.4927 38.8073 34.1834 34.6787 34.1816H34.6777C32.9042 34.1816 30.6975 33.5566 28.9551 32.2578C27.2416 30.9806 26 29.0766 26 26.4453C26 23.8502 26.5031 22.185 27.377 20.8359C28.2771 19.4465 29.6195 18.3081 31.5068 16.834C35.1183 14.0132 40.2945 10.2673 46.499 1.71875Z" stroke="#4100A6" stroke-width="2"/>
<path d="M71.499 1.71875C77.7042 10.2677 82.8815 14.0131 86.4932 16.834C88.3808 18.3083 89.7228 19.4473 90.623 20.8369C91.4969 22.1859 92 23.8505 92 26.4453C92 29.0769 90.7596 30.981 89.0469 32.2578C87.3052 33.5562 85.098 34.1798 83.3213 34.1807C79.1912 34.1805 76.0634 32.4931 74.1885 31.1016L72.4795 29.834L72.5938 31.959C72.728 34.4579 73.1268 36.7344 74.3145 38.7588C75.018 39.9579 75.9769 41.0288 77.2549 42H65.7451C67.0231 41.0288 67.982 39.9579 68.6855 38.7588C69.8732 36.7344 70.272 34.4579 70.4062 31.959L70.5205 29.835L68.8125 31.1016C66.9369 32.4927 63.8073 34.1834 59.6787 34.1816H59.6777C57.9042 34.1816 55.6975 33.5566 53.9551 32.2578C52.2416 30.9806 51 29.0766 51 26.4453C51 23.8502 51.5031 22.185 52.377 20.8359C53.2771 19.4465 54.6195 18.3081 56.5068 16.834C60.1183 14.0132 65.2945 10.2673 71.499 1.71875Z" stroke="#4100A6" stroke-width="2"/>
</svg>
